<svg width="900" viewBox="0 0 900 1750" xmlns="http://www.w3.org/2000/svg" font-family="'Segoe UI',system-ui,sans-serif">
<defs>
  <linearGradient id="gp1" x1="0%" y1="0%" x2="100%" y2="0%"><stop offset="0%" stop-color="#4c1d95"/><stop offset="50%" stop-color="#7c3aed"/><stop offset="100%" stop-color="#a78bfa"/></linearGradient>
  <linearGradient id="gp2" x1="0%" y1="0%" x2="100%" y2="0%"><stop offset="0%" stop-color="#5b21b6"/><stop offset="50%" stop-color="#8b5cf6"/><stop offset="100%" stop-color="#c4b5fd"/></linearGradient>
  <linearGradient id="gt1" x1="0%" y1="0%" x2="100%" y2="0%"><stop offset="0%" stop-color="#065f46"/><stop offset="50%" stop-color="#0f766e"/><stop offset="100%" stop-color="#5eead4"/></linearGradient>
  <linearGradient id="ga1" x1="0%" y1="0%" x2="100%" y2="0%"><stop offset="0%" stop-color="#92400e"/><stop offset="50%" stop-color="#b45309"/><stop offset="100%" stop-color="#fcd34d"/></linearGradient>
  <linearGradient id="gb1" x1="0%" y1="0%" x2="100%" y2="0%"><stop offset="0%" stop-color="#1e3a8a"/><stop offset="50%" stop-color="#2563eb"/><stop offset="100%" stop-color="#93c5fd"/></linearGradient>
  <linearGradient id="gs1" x1="0%" y1="0%" x2="100%" y2="0%"><stop offset="0%" stop-color="#075985"/><stop offset="50%" stop-color="#0284c7"/><stop offset="100%" stop-color="#7dd3fc"/></linearGradient>
  <linearGradient id="gc1" x1="0%" y1="0%" x2="100%" y2="0%"><stop offset="0%" stop-color="#9a3412"/><stop offset="50%" stop-color="#c2410c"/><stop offset="100%" stop-color="#fdba74"/></linearGradient>
  <linearGradient id="header-bg" x1="0%" y1="0%" x2="100%" y2="100%"><stop offset="0%" stop-color="#faf9ff"/><stop offset="100%" stop-color="#f3f0ff"/></linearGradient>
</defs>

<!-- BACKGROUND -->
<rect width="900" height="1750" fill="#ffffff" rx="12"/>
<rect width="900" height="1750" fill="none" stroke="#e5e2f0" stroke-width="1" rx="12"/>

<!-- HEADER -->
<rect x="0" y="0" width="900" height="86" fill="url(#header-bg)" rx="12"/>
<rect x="0" y="66" width="900" height="20" fill="#faf9ff"/>
<rect x="0" y="84" width="900" height="2" fill="#ede9fb"/>

<rect x="20" y="18" width="4" height="36" fill="#7c3aed" rx="2"/>
<text x="32" y="36" font-size="19" font-weight="700" fill="#1e1b2e" letter-spacing="-0.4">Aastha Pritesh Joshi</text>
<text x="32" y="53" font-size="9.5" fill="#7c6fa0" font-family="'Courier New',monospace">skill_depth_map.json</text>
<text x="32" y="70" font-size="9" fill="#a89ec0" font-family="'Courier New',monospace">Applied AI Engineer · Forward Deployed Eng · LLM Engineer · Data Analyst · Data Engineer · AI PM · San Diego CA 🇺🇸</text>

<!-- ════ AI / LLM / AGENTS ════ -->
<rect x="20" y="100" width="860" height="1" fill="#ede9fb"/>
<rect x="20" y="108" width="4" height="13" fill="#7c3aed" rx="2"/>
<text x="30" y="119" font-size="9.5" font-weight="700" fill="#7c3aed" letter-spacing="1.8" font-family="'Courier New',monospace">AI · LLM · AGENTS</text>
<rect x="205" y="115" width="675" height="0.5" fill="#e8e4f8"/>

<!-- Agentic Pipelines 96% -->
<text x="36" y="145" font-size="10.5" font-weight="600" fill="#2d2440">Agentic Pipelines</text>
<text x="856" y="145" font-size="9.5" font-weight="700" fill="#6d28d9" text-anchor="end">96%</text>
<rect x="36" y="150" width="826" height="26" fill="#f5f3ff" rx="5" stroke="#e9e3fd" stroke-width="0.5"/>
<rect x="36" y="150" width="793" height="26" fill="url(#gp1)" rx="5"/>
<text x="46" y="167" font-size="8.5" fill="#ffffff" font-family="'Courier New',monospace">LangGraph · 5-agent orchestrator · supervisor patterns · state machines · checkpointing · HITL gate · SHA-256 audit ledger · tool calling · A2A · LangChain · CrewAI</text>

<!-- RAG Architecture 95% -->
<text x="36" y="195" font-size="10.5" font-weight="600" fill="#2d2440">RAG Architecture</text>
<text x="856" y="195" font-size="9.5" font-weight="700" fill="#6d28d9" text-anchor="end">95%</text>
<rect x="36" y="200" width="826" height="26" fill="#f5f3ff" rx="5" stroke="#e9e3fd" stroke-width="0.5"/>
<rect x="36" y="200" width="784" height="26" fill="url(#gp2)" rx="5"/>
<text x="46" y="217" font-size="8.5" fill="#ffffff" font-family="'Courier New',monospace">Hybrid retrieval (BM25 + dense + RRF) · Cohere reranking · pgvector · Pinecone · contextual retrieval · RAPTOR · chunking strategies · confidence gating · adversarial eval · agentic RAG</text>

<!-- LLM Frameworks 94% -->
<text x="36" y="245" font-size="10.5" font-weight="600" fill="#2d2440">LLM Frameworks · APIs</text>
<text x="856" y="245" font-size="9.5" font-weight="700" fill="#6d28d9" text-anchor="end">94%</text>
<rect x="36" y="250" width="826" height="26" fill="#f5f3ff" rx="5" stroke="#e9e3fd" stroke-width="0.5"/>
<rect x="36" y="250" width="776" height="26" fill="url(#gp1)" rx="5"/>
<text x="46" y="267" font-size="8.5" fill="#ffffff" font-family="'Courier New',monospace">OpenAI SDK · Anthropic SDK · LlamaIndex · Pydantic · structured outputs · async Python · prompt engineering · few-shot · chain-of-thought · JSON schema enforcement · system prompt design</text>

<!-- Eval Observability 97% -->
<text x="36" y="295" font-size="10.5" font-weight="600" fill="#2d2440">Eval · Observability</text>
<text x="856" y="295" font-size="9.5" font-weight="700" fill="#6d28d9" text-anchor="end">97%</text>
<rect x="36" y="300" width="826" height="26" fill="#f5f3ff" rx="5" stroke="#e9e3fd" stroke-width="0.5"/>
<rect x="36" y="300" width="810" height="26" fill="url(#gp2)" rx="5"/>
<text x="46" y="317" font-size="8.5" fill="#ffffff" font-family="'Courier New',monospace">Ragas · DeepEval · LLM-as-judge · golden datasets · Langfuse · ObserveLab (built) · NDCG@10=0.847 · Faithfulness=0.93 · F1=0.909 · MRR=0.891 · production tracing · failure logging</text>

<!-- Multi-model Routing 93% -->
<text x="36" y="345" font-size="10.5" font-weight="600" fill="#2d2440">Multi-model Routing</text>
<text x="856" y="345" font-size="9.5" font-weight="700" fill="#6d28d9" text-anchor="end">93%</text>
<rect x="36" y="350" width="826" height="26" fill="#f5f3ff" rx="5" stroke="#e9e3fd" stroke-width="0.5"/>
<rect x="36" y="350" width="768" height="26" fill="url(#gp1)" rx="5"/>
<text x="46" y="367" font-size="8.5" fill="#ffffff" font-family="'Courier New',monospace">GPT-4o · GPT-4o-mini · Claude Sonnet · Claude Haiku · Gemini · DeepSeek · cost optimization · model tier selection · prompt caching · inference cost modeling · Dual-Mode AI Assistant</text>

<!-- MCP Protocol 91% -->
<text x="36" y="395" font-size="10.5" font-weight="600" fill="#2d2440">MCP Protocol</text>
<text x="856" y="395" font-size="9.5" font-weight="700" fill="#6d28d9" text-anchor="end">91%</text>
<rect x="36" y="400" width="826" height="26" fill="#f5f3ff" rx="5" stroke="#e9e3fd" stroke-width="0.5"/>
<rect x="36" y="400" width="751" height="26" fill="url(#gp2)" rx="5"/>
<text x="46" y="417" font-size="8.5" fill="#ffffff" font-family="'Courier New',monospace">MCP server built from scratch · MCP client · tool schema design · OAuth 2.0 for MCP · agent-to-tool interop · MCP CLI Note App · enterprise AI interoperability standard 2026</text>

<!-- Safety Guardrails 92% -->
<text x="36" y="445" font-size="10.5" font-weight="600" fill="#2d2440">Safety · Guardrails</text>
<text x="856" y="445" font-size="9.5" font-weight="700" fill="#6d28d9" text-anchor="end">92%</text>
<rect x="36" y="450" width="826" height="26" fill="#f5f3ff" rx="5" stroke="#e9e3fd" stroke-width="0.5"/>
<rect x="36" y="450" width="760" height="26" fill="url(#gp1)" rx="5"/>
<text x="46" y="467" font-size="8.5" fill="#ffffff" font-family="'Courier New',monospace">HITL governance gate · OWASP LLM Top 10 2025 · prompt injection defense · output filtering · PII detection · SR 26-2 · OCC Bulletin 2026-13 · EU AI Act awareness · rate limiting</text>

<!-- ════ DATA ENGINEERING ════ -->
<rect x="20" y="496" width="860" height="1" fill="#e2f8f5"/>
<rect x="20" y="504" width="4" height="13" fill="#0f766e" rx="2"/>
<text x="30" y="515" font-size="9.5" font-weight="700" fill="#0f766e" letter-spacing="1.8" font-family="'Courier New',monospace">DATA ENGINEERING</text>
<rect x="225" y="511" width="655" height="0.5" fill="#e2f8f5"/>

<!-- SQL Databases 94% -->
<text x="36" y="541" font-size="10.5" font-weight="600" fill="#1a3330">SQL · Databases</text>
<text x="856" y="541" font-size="9.5" font-weight="700" fill="#0f766e" text-anchor="end">94%</text>
<rect x="36" y="546" width="826" height="26" fill="#f0fdf9" rx="5" stroke="#ccfbf1" stroke-width="0.5"/>
<rect x="36" y="546" width="776" height="26" fill="url(#gt1)" rx="5"/>
<text x="46" y="563" font-size="8.5" fill="#ffffff" font-family="'Courier New',monospace">PostgreSQL · pgvector · MySQL · MongoDB · DuckDB · SQL window functions · CTEs · recursive queries · schema design · Alembic migrations · indexing · query optimization · Snowflake · BigQuery</text>

<!-- Pipeline ETL 90% -->
<text x="36" y="591" font-size="10.5" font-weight="600" fill="#1a3330">Pipeline · ETL / ELT</text>
<text x="856" y="591" font-size="9.5" font-weight="700" fill="#0f766e" text-anchor="end">90%</text>
<rect x="36" y="596" width="826" height="26" fill="#f0fdf9" rx="5" stroke="#ccfbf1" stroke-width="0.5"/>
<rect x="36" y="596" width="743" height="26" fill="url(#gt1)" rx="5"/>
<text x="46" y="613" font-size="8.5" fill="#ffffff" font-family="'Courier New',monospace">dbt · modular SQL transforms · Apache Airflow · Prefect · Fivetran · SEC EDGAR extraction · API ingestion pipelines · ETL automation · Great Expectations · Monte Carlo · data quality checks</text>

<!-- Big Data Streaming 87% -->
<text x="36" y="641" font-size="10.5" font-weight="600" fill="#1a3330">Big Data · Streaming</text>
<text x="856" y="641" font-size="9.5" font-weight="700" fill="#0f766e" text-anchor="end">87%</text>
<rect x="36" y="646" width="826" height="26" fill="#f0fdf9" rx="5" stroke="#ccfbf1" stroke-width="0.5"/>
<rect x="36" y="646" width="718" height="26" fill="url(#gt1)" rx="5"/>
<text x="46" y="663" font-size="8.5" fill="#ffffff" font-family="'Courier New',monospace">Apache Spark · PySpark · Apache Kafka · Flink · distributed data processing · streaming pipelines · Delta Lake · data partitioning · Databricks · batch vs stream architecture · FinOps</text>

<!-- Vector AI Data Infra 95% -->
<text x="36" y="691" font-size="10.5" font-weight="600" fill="#1a3330">Vector · AI Data Infra</text>
<text x="856" y="691" font-size="9.5" font-weight="700" fill="#0f766e" text-anchor="end">95%</text>
<rect x="36" y="696" width="826" height="26" fill="#f0fdf9" rx="5" stroke="#ccfbf1" stroke-width="0.5"/>
<rect x="36" y="696" width="784" height="26" fill="url(#gt1)" rx="5"/>
<text x="46" y="713" font-size="8.5" fill="#ffffff" font-family="'Courier New',monospace">pgvector embedding pipelines · hybrid retrieval (BM25 + dense + RRF) · 19-doc clinical corpus · eval data pipelines · golden dataset curation · Pinecone · Weaviate · Qdrant · feature store design</text>

<!-- Data Quality Observability 91% -->
<text x="36" y="741" font-size="10.5" font-weight="600" fill="#1a3330">Data Quality · Observability</text>
<text x="856" y="741" font-size="9.5" font-weight="700" fill="#0f766e" text-anchor="end">91%</text>
<rect x="36" y="746" width="826" height="26" fill="#f0fdf9" rx="5" stroke="#ccfbf1" stroke-width="0.5"/>
<rect x="36" y="746" width="751" height="26" fill="url(#gt1)" rx="5"/>
<text x="46" y="763" font-size="8.5" fill="#ffffff" font-family="'Courier New',monospace">ObserveLab (built from scratch) · dbt testing · data freshness monitoring · schema validation · anomaly detection · pipeline alerting · data lineage · CI/CD for pipelines · Great Expectations</text>

<!-- ════ ANALYTICS / BI ════ -->
<rect x="20" y="791" width="860" height="1" fill="#fef3c7"/>
<rect x="20" y="799" width="4" height="13" fill="#b45309" rx="2"/>
<text x="30" y="810" font-size="9.5" font-weight="700" fill="#b45309" letter-spacing="1.8" font-family="'Courier New',monospace">ANALYTICS · BI · RESEARCH</text>
<rect x="272" y="806" width="608" height="0.5" fill="#fef3c7"/>

<!-- BI Dashboards 93% -->
<text x="36" y="836" font-size="10.5" font-weight="600" fill="#2d1a00">BI Tools · Dashboards</text>
<text x="856" y="836" font-size="9.5" font-weight="700" fill="#b45309" text-anchor="end">93%</text>
<rect x="36" y="841" width="826" height="26" fill="#fffbeb" rx="5" stroke="#fde68a" stroke-width="0.5"/>
<rect x="36" y="841" width="768" height="26" fill="url(#ga1)" rx="5"/>
<text x="46" y="858" font-size="8.5" fill="#ffffff" font-family="'Courier New',monospace">Power BI · DAX · semantic models · interactive dashboards · drill-through · slicers · Looker Studio · GA4 · KPI tracking · conditional formatting · Power BI Service · Tableau · healthcare + e-commerce dashboards</text>

<!-- Python Analytics 91% -->
<text x="36" y="886" font-size="10.5" font-weight="600" fill="#2d1a00">Python Analytics</text>
<text x="856" y="886" font-size="9.5" font-weight="700" fill="#b45309" text-anchor="end">91%</text>
<rect x="36" y="891" width="826" height="26" fill="#fffbeb" rx="5" stroke="#fde68a" stroke-width="0.5"/>
<rect x="36" y="891" width="751" height="26" fill="url(#ga1)" rx="5"/>
<text x="46" y="908" font-size="8.5" fill="#ffffff" font-family="'Courier New',monospace">Pandas · NumPy · Scikit-learn · Matplotlib · Seaborn · statistical analysis · A/B testing · regression · predictive modeling · feature engineering · 7 Matplotlib diagrams (RetrievalLab) · cohort analysis</text>

<!-- Domain Analytics 92% -->
<text x="36" y="936" font-size="10.5" font-weight="600" fill="#2d1a00">Domain Analytics</text>
<text x="856" y="936" font-size="9.5" font-weight="700" fill="#b45309" text-anchor="end">92%</text>
<rect x="36" y="941" width="826" height="26" fill="#fffbeb" rx="5" stroke="#fde68a" stroke-width="0.5"/>
<rect x="36" y="941" width="760" height="26" fill="url(#ga1)" rx="5"/>
<text x="46" y="958" font-size="8.5" fill="#ffffff" font-family="'Courier New',monospace">Financial analysis · Nike 10-K · SEC EDGAR · healthcare analytics (MediSight+) · RAG eval metrics · business metrics · revenue KPIs · funnel analysis · web analytics · econometrics · clinical data</text>

<!-- Research Publications 95% -->
<text x="36" y="986" font-size="10.5" font-weight="600" fill="#2d1a00">Research · Publications</text>
<text x="856" y="986" font-size="9.5" font-weight="700" fill="#b45309" text-anchor="end">95%</text>
<rect x="36" y="991" width="826" height="26" fill="#fffbeb" rx="5" stroke="#fde68a" stroke-width="0.5"/>
<rect x="36" y="991" width="784" height="26" fill="url(#ga1)" rx="5"/>
<text x="46" y="1008" font-size="8.5" fill="#ffffff" font-family="'Courier New',monospace">arXiv 2026 · Multidisciplinary Review 2025 · PANAM 2026 accepted · SDSURF Research Assistant · agentic AI systems research · quantitative eval design · literature review · academic writing</text>

<!-- ════ INFRASTRUCTURE ════ -->
<rect x="20" y="1036" width="860" height="1" fill="#dbeafe"/>
<rect x="20" y="1044" width="4" height="13" fill="#1d4ed8" rx="2"/>
<text x="30" y="1055" font-size="9.5" font-weight="700" fill="#1d4ed8" letter-spacing="1.8" font-family="'Courier New',monospace">INFRASTRUCTURE · DEVOPS · DEPLOY</text>
<rect x="322" y="1051" width="558" height="0.5" fill="#dbeafe"/>

<!-- Containerisation 88% -->
<text x="36" y="1081" font-size="10.5" font-weight="600" fill="#0f1f40">Containerisation · Orchestration</text>
<text x="856" y="1081" font-size="9.5" font-weight="700" fill="#1d4ed8" text-anchor="end">88%</text>
<rect x="36" y="1086" width="826" height="26" fill="#eff6ff" rx="5" stroke="#bfdbfe" stroke-width="0.5"/>
<rect x="36" y="1086" width="727" height="26" fill="url(#gb1)" rx="5"/>
<text x="46" y="1103" font-size="8.5" fill="#ffffff" font-family="'Courier New',monospace">Docker · Kubernetes · Terraform · infrastructure-as-code · containerised AI services · Dockerfile · docker-compose · multi-service deployments (app + vector DB) · EKS · vLLM awareness · Triton awareness</text>

<!-- Cloud Deployment 90% -->
<text x="36" y="1131" font-size="10.5" font-weight="600" fill="#0f1f40">Cloud · Deployment</text>
<text x="856" y="1131" font-size="9.5" font-weight="700" fill="#1d4ed8" text-anchor="end">90%</text>
<rect x="36" y="1136" width="826" height="26" fill="#eff6ff" rx="5" stroke="#bfdbfe" stroke-width="0.5"/>
<rect x="36" y="1136" width="743" height="26" fill="url(#gb1)" rx="5"/>
<text x="46" y="1153" font-size="8.5" fill="#ffffff" font-family="'Courier New',monospace">AWS · Vercel · Railway · Streamlit Cloud · GitHub Actions CI/CD · environment secrets · S3 · ECR · App Runner · GCP awareness · Azure awareness · cloud-native services · production deployments</text>

<!-- Backend APIs 93% -->
<text x="36" y="1181" font-size="10.5" font-weight="600" fill="#0f1f40">Backend · APIs</text>
<text x="856" y="1181" font-size="9.5" font-weight="700" fill="#1d4ed8" text-anchor="end">93%</text>
<rect x="36" y="1186" width="826" height="26" fill="#eff6ff" rx="5" stroke="#bfdbfe" stroke-width="0.5"/>
<rect x="36" y="1186" width="768" height="26" fill="url(#gb1)" rx="5"/>
<text x="46" y="1203" font-size="8.5" fill="#ffffff" font-family="'Courier New',monospace">FastAPI · REST APIs · async Python · Pydantic · SSE streaming · WebSockets · JWT auth · rate limiting · API key management · input sanitisation · OpenAPI docs · middleware · CORS · retry mechanisms</text>

<!-- ════ FRONTEND ════ -->
<rect x="20" y="1231" width="860" height="1" fill="#e0f2fe"/>
<rect x="20" y="1239" width="4" height="13" fill="#0284c7" rx="2"/>
<text x="30" y="1250" font-size="9.5" font-weight="700" fill="#0284c7" letter-spacing="1.8" font-family="'Courier New',monospace">FRONTEND · UI</text>
<rect x="168" y="1246" width="712" height="0.5" fill="#e0f2fe"/>

<!-- React Ecosystem 89% -->
<text x="36" y="1276" font-size="10.5" font-weight="600" fill="#0c2a40">React Ecosystem</text>
<text x="856" y="1276" font-size="9.5" font-weight="700" fill="#0284c7" text-anchor="end">89%</text>
<rect x="36" y="1281" width="826" height="26" fill="#f0f9ff" rx="5" stroke="#bae6fd" stroke-width="0.5"/>
<rect x="36" y="1281" width="735" height="26" fill="url(#gs1)" rx="5"/>
<text x="46" y="1298" font-size="8.5" fill="#ffffff" font-family="'Courier New',monospace">React 18 · TypeScript · Tailwind CSS · hooks · functional components · React Router · state management · responsive design · dark mode theming · shadcn/ui · component libraries · React Three Fiber</text>

<!-- UI Visualisation 87% -->
<text x="36" y="1326" font-size="10.5" font-weight="600" fill="#0c2a40">UI · Visualisation</text>
<text x="856" y="1326" font-size="9.5" font-weight="700" fill="#0284c7" text-anchor="end">87%</text>
<rect x="36" y="1331" width="826" height="26" fill="#f0f9ff" rx="5" stroke="#bae6fd" stroke-width="0.5"/>
<rect x="36" y="1331" width="718" height="26" fill="url(#gs1)" rx="5"/>
<text x="46" y="1348" font-size="8.5" fill="#ffffff" font-family="'Courier New',monospace">HTML5 · CSS3 · Streamlit · Three.js · GSAP animations · Matplotlib · D3.js basics · SVG · data visualisation · Cosmic Purple + Amber theming · Recharts · Plotly · AR (Unity/Vuforia)</text>

<!-- ════ BUSINESS ════ -->
<rect x="20" y="1376" width="860" height="1" fill="#ffedd5"/>
<rect x="20" y="1384" width="4" height="13" fill="#c2410c" rx="2"/>
<text x="30" y="1395" font-size="9.5" font-weight="700" fill="#c2410c" letter-spacing="1.8" font-family="'Courier New',monospace">BUSINESS · STRATEGY · PRODUCT</text>
<rect x="308" y="1391" width="572" height="0.5" fill="#ffedd5"/>

<!-- Product Strategy 93% -->
<text x="36" y="1421" font-size="10.5" font-weight="600" fill="#2d0f00">Product · Strategy</text>
<text x="856" y="1421" font-size="9.5" font-weight="700" fill="#c2410c" text-anchor="end">93%</text>
<rect x="36" y="1426" width="826" height="26" fill="#fff7ed" rx="5" stroke="#fed7aa" stroke-width="0.5"/>
<rect x="36" y="1426" width="768" height="26" fill="url(#gc1)" rx="5"/>
<text x="46" y="1443" font-size="8.5" fill="#ffffff" font-family="'Courier New',monospace">Harvard Entrepreneurship Essentials · product roadmapping · go-to-market strategy · user research · product-market fit · KPI definition · OKR setting · founder mindset · innovation frameworks</text>

<!-- Stakeholder PM 91% -->
<text x="36" y="1471" font-size="10.5" font-weight="600" fill="#2d0f00">Stakeholder · Project Mgmt</text>
<text x="856" y="1471" font-size="9.5" font-weight="700" fill="#c2410c" text-anchor="end">91%</text>
<rect x="36" y="1476" width="826" height="26" fill="#fff7ed" rx="5" stroke="#fed7aa" stroke-width="0.5"/>
<rect x="36" y="1476" width="751" height="26" fill="url(#gc1)" rx="5"/>
<text x="46" y="1493" font-size="8.5" fill="#ffffff" font-family="'Courier New',monospace">Stakeholder communication · requirements gathering · gap analysis · JIRA · Confluence · Agile · Scrum · SDLC · cross-functional leadership · change management · UAT · milestone management</text>

<!-- Enterprise Compliance 90% -->
<text x="36" y="1521" font-size="10.5" font-weight="600" fill="#2d0f00">Enterprise · Compliance</text>
<text x="856" y="1521" font-size="9.5" font-weight="700" fill="#c2410c" text-anchor="end">90%</text>
<rect x="36" y="1526" width="826" height="26" fill="#fff7ed" rx="5" stroke="#fed7aa" stroke-width="0.5"/>
<rect x="36" y="1526" width="743" height="26" fill="url(#gc1)" rx="5"/>
<text x="46" y="1543" font-size="8.5" fill="#ffffff" font-family="'Courier New',monospace">ERP systems (SAP · Oracle) · SR 26-2 · OCC Bulletin 2026-13 · HIPAA awareness · EU AI Act 2026 · AI governance · regulatory compliance · audit trails · data privacy · risk management</text>

<!-- Business Analytics 92% -->
<text x="36" y="1571" font-size="10.5" font-weight="600" fill="#2d0f00">Business Analytics · Domain</text>
<text x="856" y="1571" font-size="9.5" font-weight="700" fill="#c2410c" text-anchor="end">92%</text>
<rect x="36" y="1576" width="826" height="26" fill="#fff7ed" rx="5" stroke="#fed7aa" stroke-width="0.5"/>
<rect x="36" y="1576" width="760" height="26" fill="url(#gc1)" rx="5"/>
<text x="46" y="1593" font-size="8.5" fill="#ffffff" font-family="'Courier New',monospace">Financial reporting · SEC EDGAR analysis · service operations management · service science · project management methodology · business process modeling · Gold Medal #1 B.Tech · MS GPA 3.73</text>

<!-- ════ LEGEND ════ -->
<rect x="20" y="1622" width="860" height="0.5" fill="#e8e4f8"/>

<circle cx="44" cy="1646" r="5" fill="#7c3aed"/>
<text x="54" y="1650" font-size="9" fill="#6b6a80">AI · LLM · Agents</text>
<circle cx="172" cy="1646" r="5" fill="#0f766e"/>
<text x="182" y="1650" font-size="9" fill="#6b6a80">Data Engineering</text>
<circle cx="306" cy="1646" r="5" fill="#b45309"/>
<text x="316" y="1650" font-size="9" fill="#6b6a80">Analytics · BI</text>
<circle cx="420" cy="1646" r="5" fill="#1d4ed8"/>
<text x="430" y="1650" font-size="9" fill="#6b6a80">Infrastructure</text>
<circle cx="522" cy="1646" r="5" fill="#0284c7"/>
<text x="532" y="1650" font-size="9" fill="#6b6a80">Frontend</text>
<circle cx="606" cy="1646" r="5" fill="#c2410c"/>
<text x="616" y="1650" font-size="9" fill="#6b6a80">Business · Strategy</text>

<!-- ════ PROOF METRICS STRIP ════ -->
<rect x="20" y="1670" width="860" height="0.5" fill="#e8e4f8"/>
<rect x="20" y="1682" width="860" height="56" fill="#faf9ff" rx="8" stroke="#e8e4f8" stroke-width="0.5"/>
<rect x="20" y="1682" width="4" height="56" fill="#7c3aed" rx="2"/>

<text x="44" y="1700" font-size="8.5" fill="#9990b8" font-family="'Courier New',monospace" letter-spacing="1">PROOF · NOT CLAIMS</text>

<text x="44" y="1720" font-size="10" font-weight="700" fill="#6d28d9">F1 = 0.909</text>
<text x="44" y="1732" font-size="8" fill="#a89ec0" font-family="'Courier New',monospace">ThirdLine-of-Defense</text>

<text x="180" y="1720" font-size="10" font-weight="700" fill="#6d28d9">Faithfulness = 0.93</text>
<text x="180" y="1732" font-size="8" fill="#a89ec0" font-family="'Courier New',monospace">MediSight+</text>

<text x="340" y="1720" font-size="10" font-weight="700" fill="#0f766e">NDCG@10 = 0.847</text>
<text x="340" y="1732" font-size="8" fill="#a89ec0" font-family="'Courier New',monospace">RetrievalLab</text>

<text x="500" y="1720" font-size="10" font-weight="700" fill="#0f766e">MRR = 0.891</text>
<text x="500" y="1732" font-size="8" fill="#a89ec0" font-family="'Courier New',monospace">RetrievalLab</text>

<text x="608" y="1720" font-size="10" font-weight="700" fill="#b45309">GPA 3.73 · Gold Medal #1</text>
<text x="608" y="1732" font-size="8" fill="#a89ec0" font-family="'Courier New',monospace">MS SDSU · B.Tech</text>

<text x="800" y="1720" font-size="10" font-weight="700" fill="#1d4ed8">2 Papers</text>
<text x="800" y="1732" font-size="8" fill="#a89ec0" font-family="'Courier New',monospace">arXiv · PANAM</text>

</svg>
